<svg width="49" height="27" viewBox="0 0 49 27" fill="none" xmlns="http://www.w3.org/2000/svg">
<path fill-rule="evenodd" clip-rule="evenodd" d="M27.1472 25.9692C26.4571 26.6292 25.5211 27 24.5452 27C23.5693 27 22.6334 26.6292 21.9432 25.9692L1.12356 6.05298C0.772054 5.72822 0.491678 5.33973 0.298795 4.9102C0.105912 4.48067 0.00438539 4.01869 0.000138956 3.55123C-0.00410748 3.08376 0.0890123 2.62016 0.274063 2.18749C0.459113 1.75482 0.73239 1.36173 1.07795 1.03117C1.4235 0.700607 1.83442 0.439189 2.28672 0.262169C2.73902 0.0851481 3.22364 -0.00392924 3.71232 0.000132929C4.20099 0.00419509 4.68392 0.101316 5.13294 0.285829C5.58195 0.470342 5.98806 0.73855 6.32756 1.07481L24.5452 18.5019L42.7629 1.07481C43.457 0.433495 44.3867 0.0786352 45.3516 0.0866567C46.3166 0.0946782 47.2397 0.464939 47.9221 1.11769C48.6044 1.77045 48.9915 2.65347 48.9999 3.57657C49.0082 4.49966 48.6373 5.38899 47.9669 6.05298L27.1472 25.9692Z" fill="white" fill-opacity="0.43"/>
</svg>
